<svg xmlns="http://www.w3.org/2000/svg" viewBox="0 0 512 512" width="512" height="512">
  <defs>
    <linearGradient id="bg" x1="0" y1="0" x2="1" y2="1">
      <stop offset="0" stop-color="#0e3a5f"/>
      <stop offset="1" stop-color="#0b1f33"/>
    </linearGradient>
  </defs>
  <rect width="512" height="512" rx="112" fill="url(#bg)"/>
  <g fill="none" stroke="#26cdbd" stroke-width="14" stroke-linecap="round">
    <path d="M102 150 A 67 67 0 0 1 198 150"/>
    <path d="M121 123 A 40 40 0 0 1 179 123"/>
  </g>
  <circle cx="150" cy="168" r="10" fill="#26cdbd"/>
  <path d="M100 348 L100 280 Q100 262 118 262 L298 262 Q312 262 320 273 L350 314 L396 322 Q414 325 414 344 L414 348 Z" fill="#f2f7fc"/>
  <path d="M100 326 L414 326 L414 348 L100 348 Z" fill="#2f9be0"/>
  <rect x="126" y="276" width="80" height="32" rx="8" fill="#0c2c47"/>
  <rect x="214" y="276" width="78" height="32" rx="8" fill="#0c2c47"/>
  <path d="M300 276 L320 278 L346 308 L304 308 Z" fill="#0c2c47"/>
  <circle cx="162" cy="350" r="30" fill="#0b1f33"/><circle cx="162" cy="350" r="12" fill="#f2f7fc"/>
  <circle cx="356" cy="350" r="30" fill="#0b1f33"/><circle cx="356" cy="350" r="12" fill="#f2f7fc"/>
</svg>
